<svg id="Layer_1" data-name="Layer 1" xmlns="http://www.w3.org/2000/svg" viewBox="0 0 205 65"><defs><style>.cls-1{fill:#803642;}.cls-2{fill:#e8c744;}</style></defs><title>logo</title><polygon class="cls-1" points="81.78 62.56 2.5 62.56 2.51 62.55 5.58 57.89 42.14 2.44 78.7 57.89 81.77 62.55 81.78 62.56"/><path class="cls-2" d="M62.26,45.58a6.11,6.11,0,0,0-5.49-2.65,7.74,7.74,0,0,0-4.66,1.75c-4.06,3.35-9.29,3-11.51.58-1.83-2-1.37-6.08,1.32-7.17,1.14-.47,2.9-.48,3.71.6a3,3,0,0,1,.56,1.64,2.64,2.64,0,0,1-.51,1.91,2.7,2.7,0,0,1-2.75.82A2.12,2.12,0,0,1,41.58,42a5.37,5.37,0,0,0,1.12,2.92A4.45,4.45,0,0,0,44.46,46a6.06,6.06,0,0,0,4.33-.27,5,5,0,0,0,3-3.92C52,39.6,51,37.49,50,35.6c-2.1-4.18.61-6.4.61-6.4-3.45-.12-3.69,1.23-3.69,1.23,1.23-11.56-7.63-14.52-7.63-14.52a7,7,0,0,1,1.37,6.53,11.55,11.55,0,0,1-1.29,3.2c-.62,1-1.5,1.78-2.15,2.75-1.39,2.11-1.33,4.79-.91,7.18a7.31,7.31,0,0,0,.52,1.76c-3.88-2.16-5.54-.5-5.54-.5,2.46,1,2.41,4.71,3.14,6.8a8.2,8.2,0,0,0,4.17,4.8,24.5,24.5,0,0,1-2.51-1.24c-1.36-.76-2.61-1.7-3.94-2.51a9.8,9.8,0,0,0-4.66-1.75A6.09,6.09,0,0,0,22,45.58c-.74,1.16-1.17,3.44-2.65,3.68,2.09.37,1.29,5.23,8.25,5.16,4.43,0,7.5-2.33,9.72-3.44a12.15,12.15,0,0,1,4.8-1.11A12.18,12.18,0,0,1,46.94,51c2.21,1.11,5.29,3.4,9.72,3.44,7,.07,6.15-4.79,8.25-5.16C63.43,49,63,46.74,62.26,45.58Zm-27.5,4.54c-1.85.49-4.31,1.6-6.53,1.23a8.52,8.52,0,0,1-4-2.09,8.27,8.27,0,0,1,4-2.73,10.58,10.58,0,0,1,6.28.89c1.72.74,5.29,1.84,5.29,1.84A43.87,43.87,0,0,0,34.76,50.12Zm21.29,1.23c-2.22.37-4.68-.74-6.53-1.23a43.87,43.87,0,0,0-5-.86s3.57-1.1,5.29-1.84a10.58,10.58,0,0,1,6.28-.89,8.27,8.27,0,0,1,4,2.73A8.52,8.52,0,0,1,56.05,51.35Z"/><polygon class="cls-2" points="81.77 62.55 81.77 62.56 2.51 62.56 2.51 62.55 5.58 57.89 78.7 57.89 81.77 62.55"/><path class="cls-1" d="M92.15,32.73h-2V22.23H86.56V20.52h9.18v1.71H92.15Z"/><path class="cls-1" d="M102.08,23.32a4.42,4.42,0,0,1,1,.09l-.19,1.83a3.57,3.57,0,0,0-.87-.1,2.52,2.52,0,0,0-1.91.76,2.78,2.78,0,0,0-.73,2v4.83h-2V23.49h1.54l.25,1.63h.1a3.7,3.7,0,0,1,1.2-1.31A2.91,2.91,0,0,1,102.08,23.32Z"/><path class="cls-1" d="M108.8,32.89a4.48,4.48,0,0,1-3.36-1.25,4.8,4.8,0,0,1-1.22-3.47,5.23,5.23,0,0,1,1.13-3.55,3.9,3.9,0,0,1,3.1-1.3,3.79,3.79,0,0,1,2.88,1.11,4.23,4.23,0,0,1,1.06,3.06v1.06h-6.15a3,3,0,0,0,.73,2.07,2.53,2.53,0,0,0,1.93.72,6.69,6.69,0,0,0,1.52-.16,7.76,7.76,0,0,0,1.52-.51v1.6a6.24,6.24,0,0,1-1.46.48A9.34,9.34,0,0,1,108.8,32.89Zm-.35-8.08a2,2,0,0,0-1.5.59,2.86,2.86,0,0,0-.68,1.73h4.2a2.58,2.58,0,0,0-.56-1.73A1.87,1.87,0,0,0,108.45,24.81Z"/><path class="cls-1" d="M120.83,30.1a2.4,2.4,0,0,1-1,2.07,4.72,4.72,0,0,1-2.82.72,6.53,6.53,0,0,1-3-.56V30.64a7.25,7.25,0,0,0,3,.75c1.2,0,1.81-.37,1.81-1.09a.9.9,0,0,0-.2-.59,2.56,2.56,0,0,0-.66-.48,10.55,10.55,0,0,0-1.28-.57,5.84,5.84,0,0,1-2.16-1.24,2.29,2.29,0,0,1-.56-1.6A2.11,2.11,0,0,1,115,24a4.49,4.49,0,0,1,2.6-.66,7.38,7.38,0,0,1,3.08.66L120,25.46a6.85,6.85,0,0,0-2.51-.62c-1,0-1.55.3-1.55.89a.88.88,0,0,0,.4.73,8.83,8.83,0,0,0,1.77.83,7.74,7.74,0,0,1,1.66.81,2.47,2.47,0,0,1,.77.85A2.54,2.54,0,0,1,120.83,30.1Z"/><path class="cls-1" d="M131.07,32.73h-2V27.05a2.48,2.48,0,0,0-.43-1.6,1.66,1.66,0,0,0-1.36-.52,2.16,2.16,0,0,0-1.82.73,4,4,0,0,0-.58,2.46v4.61h-2V23.49h1.53l.28,1.21h.1a2.71,2.71,0,0,1,1.19-1,4,4,0,0,1,1.7-.36q3.31,0,3.32,3.39Z"/><path class="cls-1" d="M139.58,32.73l-.39-1.29h-.07a3.84,3.84,0,0,1-1.34,1.15,4.31,4.31,0,0,1-1.74.3,3,3,0,0,1-2.13-.73,2.8,2.8,0,0,1-.76-2.08,2.45,2.45,0,0,1,1.06-2.16,6.23,6.23,0,0,1,3.23-.79l1.6-.05v-.49a1.84,1.84,0,0,0-.42-1.32,1.64,1.64,0,0,0-1.28-.44A4.44,4.44,0,0,0,136,25a9,9,0,0,0-1.25.49l-.64-1.4a6.36,6.36,0,0,1,1.65-.6,7.37,7.37,0,0,1,1.69-.21,4,4,0,0,1,2.66.77,3,3,0,0,1,.89,2.42v6.22Zm-2.92-1.34a2.41,2.41,0,0,0,1.71-.6,2.16,2.16,0,0,0,.65-1.67v-.8l-1.19.05a4,4,0,0,0-2,.46,1.42,1.42,0,0,0-.63,1.27,1.2,1.2,0,0,0,.37.95A1.54,1.54,0,0,0,136.66,31.39Z"/><path class="cls-1" d="M148.37,20.52H152a6.87,6.87,0,0,1,3.64.73,2.57,2.57,0,0,1,1.12,2.32,2.78,2.78,0,0,1-.55,1.78,2.47,2.47,0,0,1-1.58.9v.08a3.16,3.16,0,0,1,1.89,1,2.89,2.89,0,0,1,.6,1.93A3.11,3.11,0,0,1,156,31.79a4.93,4.93,0,0,1-3.19.94h-4.41Zm2,5h1.92a3.27,3.27,0,0,0,1.83-.4,1.51,1.51,0,0,0,.57-1.34,1.37,1.37,0,0,0-.62-1.25,3.93,3.93,0,0,0-2-.38h-1.73Zm0,1.62v3.87h2.12a3.14,3.14,0,0,0,1.89-.48,1.8,1.8,0,0,0,.64-1.52,1.63,1.63,0,0,0-.65-1.41,3.45,3.45,0,0,0-2-.46Z"/><path class="cls-1" d="M165.23,32.73l-.39-1.29h-.07a3.93,3.93,0,0,1-1.34,1.15,4.35,4.35,0,0,1-1.74.3,3,3,0,0,1-2.13-.73,2.76,2.76,0,0,1-.76-2.08,2.45,2.45,0,0,1,1.06-2.16,6.21,6.21,0,0,1,3.23-.79l1.6-.05v-.49a1.84,1.84,0,0,0-.42-1.32,1.64,1.64,0,0,0-1.28-.44,4.4,4.4,0,0,0-1.36.21,9,9,0,0,0-1.25.49l-.64-1.4a6.23,6.23,0,0,1,1.65-.6,7.35,7.35,0,0,1,1.68-.21,4,4,0,0,1,2.66.77,3,3,0,0,1,.9,2.42v6.22Zm-2.92-1.34a2.41,2.41,0,0,0,1.71-.6,2.16,2.16,0,0,0,.65-1.67v-.8l-1.19.05a4,4,0,0,0-2,.46,1.42,1.42,0,0,0-.63,1.27,1.23,1.23,0,0,0,.36.95A1.59,1.59,0,0,0,162.31,31.39Z"/><path class="cls-1" d="M171.33,32.73h-2v-13h2Z"/><path class="cls-1" d="M174,21a1.1,1.1,0,0,1,.29-.81,1.33,1.33,0,0,1,1.63,0,1.09,1.09,0,0,1,.28.81,1.06,1.06,0,0,1-.28.79A1.11,1.11,0,0,1,174,21Zm2.08,11.69h-2V23.49h2Z"/><path class="cls-1" d="M93.26,38.21a4.62,4.62,0,0,0-3.62,1.47,5.8,5.8,0,0,0-1.32,4,6,6,0,0,0,1.25,4.06,4.41,4.41,0,0,0,3.55,1.45,9.4,9.4,0,0,0,2.83-.4v.76a9.38,9.38,0,0,1-3,.42,5.15,5.15,0,0,1-4-1.66,6.78,6.78,0,0,1-1.47-4.64,7.26,7.26,0,0,1,.7-3.28,5.15,5.15,0,0,1,2-2.2,6,6,0,0,1,3.08-.77,7.51,7.51,0,0,1,3.2.67l-.35.77A6.11,6.11,0,0,0,93.26,38.21Z"/><path class="cls-1" d="M106,45.27a5.13,5.13,0,0,1-1.08,3.47,3.7,3.7,0,0,1-3,1.25,3.9,3.9,0,0,1-2.11-.57,3.74,3.74,0,0,1-1.39-1.66,6.08,6.08,0,0,1-.49-2.49A5.1,5.1,0,0,1,99,41.81a3.73,3.73,0,0,1,3-1.24,3.64,3.64,0,0,1,2.93,1.26A5.17,5.17,0,0,1,106,45.27Zm-7.17,0a4.67,4.67,0,0,0,.82,2.92A2.8,2.8,0,0,0,102,49.24a2.76,2.76,0,0,0,2.32-1.05,4.61,4.61,0,0,0,.83-2.92,4.56,4.56,0,0,0-.83-2.91,2.84,2.84,0,0,0-2.34-1,2.76,2.76,0,0,0-2.31,1A4.54,4.54,0,0,0,98.8,45.27Z"/><path class="cls-1" d="M116,45.27a5.13,5.13,0,0,1-1.07,3.47,3.7,3.7,0,0,1-3,1.25,3.9,3.9,0,0,1-2.11-.57,3.68,3.68,0,0,1-1.39-1.66,5.92,5.92,0,0,1-.49-2.49A5.1,5.1,0,0,1,109,41.81a3.73,3.73,0,0,1,3-1.24,3.64,3.64,0,0,1,2.93,1.26A5.17,5.17,0,0,1,116,45.27Zm-7.16,0a4.67,4.67,0,0,0,.82,2.92A2.8,2.8,0,0,0,112,49.24a2.76,2.76,0,0,0,2.32-1.05,4.61,4.61,0,0,0,.83-2.92,4.56,4.56,0,0,0-.83-2.91,2.84,2.84,0,0,0-2.34-1,2.76,2.76,0,0,0-2.31,1A4.54,4.54,0,0,0,108.82,45.27Z"/><path class="cls-1" d="M119.31,45.84l4.63-5.09h1l-3.57,3.87,3.88,5.2h-1l-3.45-4.58-1.49,1.35v3.23h-.82v-13h.82v6.52l0,2.49Z"/><path class="cls-1" d="M126.66,38.23c0-.54.17-.8.52-.8a.5.5,0,0,1,.41.2,1.11,1.11,0,0,1,.14.6,1.09,1.09,0,0,1-.14.59.49.49,0,0,1-.41.22C126.83,39,126.66,38.77,126.66,38.23Zm.94,11.59h-.83V40.75h.83Z"/><path class="cls-1" d="M137,49.82V43.94a2.88,2.88,0,0,0-.58-2,2.3,2.3,0,0,0-1.79-.62,3.08,3.08,0,0,0-2.38.82,3.88,3.88,0,0,0-.76,2.66v5h-.82V40.75h.7L131.5,42h.05a3.43,3.43,0,0,1,3.15-1.42q3.08,0,3.08,3.32v5.93Z"/><path class="cls-1" d="M147.8,40.75v.58l-1.87.11a3.23,3.23,0,0,1,.75,2.06,2.74,2.74,0,0,1-.88,2.12,3.3,3.3,0,0,1-2.34.81,4.53,4.53,0,0,1-.87,0,2.35,2.35,0,0,0-.75.61,1.29,1.29,0,0,0-.26.75.68.68,0,0,0,.33.63,2.19,2.19,0,0,0,1.11.2h1.59a3.66,3.66,0,0,1,2.26.6,2.1,2.1,0,0,1,.78,1.77,2.5,2.5,0,0,1-1.16,2.21,6,6,0,0,1-3.32.78,4.57,4.57,0,0,1-2.65-.66,2.11,2.11,0,0,1-.94-1.83,2.17,2.17,0,0,1,.58-1.56,3,3,0,0,1,1.57-.84,1.56,1.56,0,0,1-.65-.5,1.14,1.14,0,0,1-.25-.74A2,2,0,0,1,142,46.2a2.58,2.58,0,0,1-1.23-1,2.9,2.9,0,0,1-.45-1.6,2.84,2.84,0,0,1,.87-2.18,3.22,3.22,0,0,1,2.33-.83,4.21,4.21,0,0,1,1.39.18Zm-7.34,10.61c0,1.25.92,1.87,2.78,1.87q3.57,0,3.57-2.28a1.31,1.31,0,0,0-.56-1.18,3.35,3.35,0,0,0-1.81-.37H143C141.29,49.4,140.46,50.05,140.46,51.36Zm.69-7.78a2.08,2.08,0,0,0,.64,1.63,2.41,2.41,0,0,0,1.71.58,2.47,2.47,0,0,0,1.74-.57,2.22,2.22,0,0,0,.6-1.67,2.26,2.26,0,0,0-.62-1.74,2.44,2.44,0,0,0-1.74-.59,2.31,2.31,0,0,0-1.71.63A2.35,2.35,0,0,0,141.15,43.58Z"/><path class="cls-1" d="M161.05,46.68a2.93,2.93,0,0,1-1.12,2.42,4.68,4.68,0,0,1-3,.89,9.36,9.36,0,0,1-3.44-.49v-.85a8.78,8.78,0,0,0,3.37.56,3.74,3.74,0,0,0,2.38-.69,2.18,2.18,0,0,0,.88-1.81,2.07,2.07,0,0,0-.29-1.15,2.64,2.64,0,0,0-.95-.83,12,12,0,0,0-1.94-.81,6.61,6.61,0,0,1-2.58-1.39,2.74,2.74,0,0,1-.71-2,2.71,2.71,0,0,1,1.07-2.23,4.22,4.22,0,0,1,2.76-.87,8.17,8.17,0,0,1,3.23.65l-.31.74a7.59,7.59,0,0,0-2.91-.64,3.37,3.37,0,0,0-2.15.63,2.06,2.06,0,0,0-.8,1.7,2.28,2.28,0,0,0,.24,1.11,2.34,2.34,0,0,0,.81.78,10.56,10.56,0,0,0,1.92.84,10,10,0,0,1,2.15,1,3.05,3.05,0,0,1,1,1A2.91,2.91,0,0,1,161.05,46.68Z"/><path class="cls-1" d="M167.05,50A3.89,3.89,0,0,1,164,48.76a5,5,0,0,1-1.1-3.42A5,5,0,0,1,164,41.83a4,4,0,0,1,3.13-1.26,6.37,6.37,0,0,1,2.26.41l-.23.74a6.59,6.59,0,0,0-2-.39,3.08,3.08,0,0,0-2.53,1,4.45,4.45,0,0,0-.86,3,4.34,4.34,0,0,0,.86,2.88,2.94,2.94,0,0,0,2.4,1,6,6,0,0,0,2.3-.44v.77A5.27,5.27,0,0,1,167.05,50Z"/><path class="cls-1" d="M177.88,49.82V43.94a2.83,2.83,0,0,0-.58-2,2.29,2.29,0,0,0-1.78-.62,3.1,3.1,0,0,0-2.39.82,3.88,3.88,0,0,0-.75,2.66v5h-.83v-13h.83V41l0,1.16h.06a3.06,3.06,0,0,1,1.29-1.19,4.58,4.58,0,0,1,1.93-.37q3.09,0,3.09,3.32v5.93Z"/><path class="cls-1" d="M189.14,45.27a5.13,5.13,0,0,1-1.08,3.47,3.67,3.67,0,0,1-3,1.25,3.86,3.86,0,0,1-2.1-.57,3.76,3.76,0,0,1-1.4-1.66,6.08,6.08,0,0,1-.48-2.49,5.1,5.1,0,0,1,1.08-3.46,3.71,3.71,0,0,1,2.95-1.24,3.64,3.64,0,0,1,2.94,1.26A5.17,5.17,0,0,1,189.14,45.27Zm-7.16,0a4.61,4.61,0,0,0,.82,2.92,3.1,3.1,0,0,0,4.65,0,4.61,4.61,0,0,0,.82-2.92,4.5,4.5,0,0,0-.83-2.91,2.81,2.81,0,0,0-2.33-1,2.78,2.78,0,0,0-2.32,1A4.6,4.6,0,0,0,182,45.27Z"/><path class="cls-1" d="M199.16,45.27a5.13,5.13,0,0,1-1.08,3.47,3.68,3.68,0,0,1-3,1.25,3.84,3.84,0,0,1-2.1-.57,3.76,3.76,0,0,1-1.4-1.66,6.08,6.08,0,0,1-.48-2.49,5.1,5.1,0,0,1,1.08-3.46,3.71,3.71,0,0,1,2.95-1.24,3.64,3.64,0,0,1,2.94,1.26A5.17,5.17,0,0,1,199.16,45.27Zm-7.16,0a4.61,4.61,0,0,0,.82,2.92,3.1,3.1,0,0,0,4.65,0,4.61,4.61,0,0,0,.82-2.92,4.56,4.56,0,0,0-.83-2.91,2.81,2.81,0,0,0-2.33-1,2.78,2.78,0,0,0-2.32,1A4.6,4.6,0,0,0,192,45.27Z"/><path class="cls-1" d="M202.5,49.82h-.83v-13h.83Z"/></svg>