<svg id="Layer_1" data-name="Layer 1" xmlns="http://www.w3.org/2000/svg" viewBox="0 0 226.77 155.91"><defs><style>.cls-1{fill:#ffdf9e;stroke:#ffdf9e;stroke-miterlimit:10;}.cls-2{fill:#ec2227;}.cls-3{fill:#07a64f;}.cls-4{fill:#010101;}.cls-5{fill:#231f20;}</style></defs><title>tripavisor_logo</title><path class="cls-1" d="M76.75,17.1c10.2-4.44,22.86-6.84,35.59-6.84a85.52,85.52,0,0,1,34.51,6.87,35.62,35.62,0,0,0-34.52,35.59A35.62,35.62,0,0,0,76.75,17.1Z"/><path class="cls-2" d="M75.68,46.83a5.82,5.82,0,1,0,5.81,5.81A5.81,5.81,0,0,0,75.68,46.83Z"/><path class="cls-3" d="M147.35,46.75a5.82,5.82,0,1,0,5.81,5.81A5.82,5.82,0,0,0,147.35,46.75Z"/><path class="cls-4" d="M76.57,35.34a17.3,17.3,0,1,0,17.29,17.3A17.3,17.3,0,0,0,76.57,35.34Zm0,29.29a12,12,0,1,1,12-12A12,12,0,0,1,76.57,64.63Zm107.62-47H160.37C148.23,9.42,131.64,4.32,112.62,4.32S75.87,9.42,63.72,17.6H41c3.7,4.32,6.43,10.18,7.12,14.2a35.62,35.62,0,0,0,56.48,43.38,89.38,89.38,0,0,1,8,11.2s5.12-7.64,8-11.17a35.62,35.62,0,0,0,56.46-43.4C177.75,27.79,180.49,21.93,184.19,17.6ZM77,81.42a28.69,28.69,0,1,1,28.69-28.69A28.7,28.7,0,0,1,77,81.42ZM77,17.1c10.19-4.44,22.85-6.84,35.58-6.84a85.61,85.61,0,0,1,34.52,6.87,35.62,35.62,0,0,0-34.53,35.59A35.62,35.62,0,0,0,77,17.1Zm71.21,64.32a28.69,28.69,0,1,1,28.68-28.69A28.69,28.69,0,0,1,148.25,81.42Zm0-46.15a17.3,17.3,0,1,0,17.29,17.29A17.29,17.29,0,0,0,148.24,35.27Zm0,29.28a12,12,0,1,1,12-12A12,12,0,0,1,148.24,64.55Z"/><path class="cls-3" d="M221.73,122H220.6v-4.74h1.68c.84,0,1.91.11,1.91,1.38a1.19,1.19,0,0,1-1,1.26l1.13,2.1h-1.24l-1-1.93h-.38Zm0-2.69a3,3,0,0,0,.9,0c.36-.11.39-.37.39-.63s-.11-.49-.34-.57a3,3,0,0,0-1-.06Z"/><path class="cls-3" d="M222.47,115.5a4.31,4.31,0,1,0,4.3,4.3A4.3,4.3,0,0,0,222.47,115.5Zm0,7.8a3.5,3.5,0,1,1,3.49-3.5A3.5,3.5,0,0,1,222.47,123.3Z"/><path class="cls-5" d="M15,121.31V117.4H8.65v-5.85L3.75,113v4.39H0v3.91H3.75v12.53c0,5.57,2.28,8.4,6.77,8.4a11.94,11.94,0,0,0,4.16-.66l.14-.05-.22-3.86-.24.07a9.39,9.39,0,0,1-2.56.29,2.74,2.74,0,0,1-2.39-1,6.06,6.06,0,0,1-.76-3.48V121.31Z"/><path class="cls-5" d="M31.92,117a9.61,9.61,0,0,0-1.26-.1,6.81,6.81,0,0,0-4.19,1.45A8.13,8.13,0,0,0,24,121.5l-.25-4.1H19.24l0,.21c.13,2,.2,4.52.2,7.59v16.49h5V128.86a7.74,7.74,0,0,1,1.74-5.42,5.43,5.43,0,0,1,4.13-1.89,7.63,7.63,0,0,1,1.54.14l.24.06V117Z"/><rect class="cls-5" x="36.44" y="117.4" width="4.99" height="24.29"/><path class="cls-5" d="M38.91,113.46a3,3,0,0,0,3.16-3.11,3,3,0,0,0-.88-2.18,3,3,0,0,0-2.23-.89,3.11,3.11,0,0,0-2.28.89,3,3,0,0,0-.88,2.18,3.06,3.06,0,0,0,.87,2.21A3,3,0,0,0,38.91,113.46Z"/><path class="cls-5" d="M65.75,120.24a9.25,9.25,0,0,0-7.35-3.5,9.54,9.54,0,0,0-8.26,4.14l-.2-3.6H45.4l0,.34c.12,2,.18,4.64.18,7.83v26.14h5V139.15a7.74,7.74,0,0,0,2.64,2.19,9.68,9.68,0,0,0,4.4,1,10.07,10.07,0,0,0,7.87-3.6c2.09-2.38,3.14-5.61,3.14-9.6A13.51,13.51,0,0,0,65.75,120.24Zm-12.27,2A5.93,5.93,0,0,1,57,121a5.72,5.72,0,0,1,4.79,2.32,9.56,9.56,0,0,1,1.83,6,10.18,10.18,0,0,1-1.85,6.43,6.24,6.24,0,0,1-9.33.47,6.37,6.37,0,0,1-1.82-4.62v-3.85a8.23,8.23,0,0,1,.64-2.74A6.14,6.14,0,0,1,53.48,122.19Z"/><path class="cls-3" d="M91,141.46a33.31,33.31,0,0,1-.39-5.69V127c0-3.26-.82-5.8-2.44-7.54s-4-2.63-7.19-2.63a15.43,15.43,0,0,0-8.35,2.2l-.14.08,1.17,3.41.22-.14a11.72,11.72,0,0,1,6.41-1.8,5.36,5.36,0,0,1,4,1.37,5.24,5.24,0,0,1,1.33,3.81V126c-4.75,0-8.43.8-10.93,2.32a7.54,7.54,0,0,0-3.87,6.82,6.78,6.78,0,0,0,2.1,5,7.67,7.67,0,0,0,5.6,2.08,9.1,9.1,0,0,0,7.43-3.33l.49,2.78H91Zm-7-4.6a6.1,6.1,0,0,1-4.25,1.57,4,4,0,0,1-2.84-1,3.76,3.76,0,0,1-1.06-2.83A4,4,0,0,1,78,131c1.43-.88,4-1.34,7.71-1.35v3.75A4.65,4.65,0,0,1,84,136.86Z"/><path class="cls-3" d="M116.29,141.81l0-.35c-.12-1.5-.19-3.6-.19-6.24V106h-5v13.7a8,8,0,0,0-2.47-2,9.45,9.45,0,0,0-4.43-1,9.8,9.8,0,0,0-7.76,3.7,14.24,14.24,0,0,0-3.11,9.5,13.3,13.3,0,0,0,3,8.88,9.38,9.38,0,0,0,7.44,3.53,9.48,9.48,0,0,0,5-1.3,8.49,8.49,0,0,0,2.83-2.73l.27,3.49Zm-5.22-14.39v3.8a6.71,6.71,0,0,1-1.86,4.95A5.93,5.93,0,0,1,105,138a5.64,5.64,0,0,1-4.85-2.34,9.91,9.91,0,0,1-1.76-6,10,10,0,0,1,1.87-6.29,6.07,6.07,0,0,1,9.08-.6A6.36,6.36,0,0,1,111.07,127.42Z"/><path class="cls-3" d="M136.78,117.4s-6.23,12.72-6.67,14.16c-.57-1.73-6.76-14.16-6.76-14.16h-5.43l12.21,24.29,12-24.29Z"/><rect class="cls-3" x="144.53" y="117.4" width="5" height="24.29"/><path class="cls-3" d="M147,113.46a3,3,0,0,0,3.16-3.11,3,3,0,0,0-.89-2.18,3,3,0,0,0-2.23-.89,3.07,3.07,0,0,0-2.27.89,3,3,0,0,0-.89,2.18,3.11,3.11,0,0,0,.87,2.21A3,3,0,0,0,147,113.46Z"/><path class="cls-3" d="M169.23,130.41a12.39,12.39,0,0,0-5-3,11.31,11.31,0,0,1-3.66-1.83,2.59,2.59,0,0,1-.84-2,2.65,2.65,0,0,1,1-2.15,4.15,4.15,0,0,1,2.75-.86,10.09,10.09,0,0,1,5,1.41l.21.12,1.26-3.69-.14-.09a12.11,12.11,0,0,0-6.22-1.5,9.37,9.37,0,0,0-6.34,2.09,6.7,6.7,0,0,0-2.4,5.22c0,3.09,2.25,5.43,6.7,7a9.6,9.6,0,0,1,3.42,1.74,3,3,0,0,1,.94,2.32,2.78,2.78,0,0,1-1.14,2.35,5.31,5.31,0,0,1-3.3.9,11.26,11.26,0,0,1-5.92-1.75l-.22-.13-1.21,3.9.14.08a14.72,14.72,0,0,0,7.11,1.71,10.7,10.7,0,0,0,6.88-2.05,6.66,6.66,0,0,0,2.55-5.41A6.37,6.37,0,0,0,169.23,130.41Z"/><path class="cls-3" d="M193.69,120.34a10.94,10.94,0,0,0-8.38-3.48,11.53,11.53,0,0,0-8.58,3.5,13,13,0,0,0-3.39,9.39,12.63,12.63,0,0,0,3.29,9,11,11,0,0,0,8.35,3.49,12.08,12.08,0,0,0,6-1.59,11,11,0,0,0,4.35-4.52,14.46,14.46,0,0,0,1.55-6.83A12.75,12.75,0,0,0,193.69,120.34ZM185,138.43a5.92,5.92,0,0,1-4.83-2.48,10,10,0,0,1-2-6.35,10.65,10.65,0,0,1,1.87-6.42,5.94,5.94,0,0,1,5.05-2.52,5.83,5.83,0,0,1,5,2.55,10.45,10.45,0,0,1,1.85,6.24,10,10,0,0,1-2,6.48A6.12,6.12,0,0,1,185,138.43Z"/><path class="cls-3" d="M213.67,117a9.86,9.86,0,0,0-1.26-.1,6.81,6.81,0,0,0-4.19,1.45,8.15,8.15,0,0,0-2.53,3.19l-.25-4.1H201v.21c.13,2,.2,4.52.2,7.59v16.49h5V128.86a7.79,7.79,0,0,1,1.73-5.42,5.46,5.46,0,0,1,4.14-1.89,7.6,7.6,0,0,1,1.53.14l.25.06V117Z"/></svg>