<?xml version="1.0" encoding="utf-8"?>
<!-- Generator: Adobe Illustrator 23.0.3, SVG Export Plug-In . SVG Version: 6.00 Build 0)  -->
<svg version="1.1" id="Layer_1" xmlns="http://www.w3.org/2000/svg" xmlns:xlink="http://www.w3.org/1999/xlink" x="0px" y="0px"
	 viewBox="0 0 80 60" style="enable-background:new 0 0 80 60;" xml:space="preserve">
<style type="text/css">
	.st0{fill:#6CB8F8;}
	.st1{fill:#FAF06E;}
	.st2{fill:#37586F;}
	.st3{fill:#E8C31F;}
	.st4{fill:#803642;}
	.st5{fill:#E8C744;}
	.st6{fill:#231F20;}
	.st7{fill:#317C8E;}
	.st8{fill:#EDE70C;}
	.st9{fill:#D66928;}
	.st10{fill:#005E8E;}
</style>
<g>
	<g>
		<polygon class="st4" points="79.55,60 0.45,60 0.46,59.98 3.52,55.33 40,0 76.48,55.33 79.54,59.98 		"/>
	</g>
	<path class="st5" d="M60.07,43.05c-1.21-1.88-3.27-2.69-5.47-2.64c-1.7,0.04-3.37,0.68-4.65,1.74c-4.05,3.34-9.27,3.04-11.48,0.58
		c-1.83-2.03-1.37-6.07,1.31-7.16c1.14-0.47,2.9-0.47,3.71,0.6c0.35,0.47,0.52,1.05,0.56,1.64c0.05,0.67-0.08,1.39-0.51,1.91
		c-0.63,0.77-1.79,1.1-2.74,0.81c-1.04-0.31-1.35-1.09-1.35-1.09s0.14,1.93,1.12,2.91c0.5,0.5,1.1,0.88,1.76,1.1
		c1.39,0.47,2.98,0.32,4.31-0.27c1.6-0.72,2.79-2.14,3-3.91c0.25-2.18-0.83-4.28-1.77-6.17c-2.09-4.18,0.61-6.39,0.61-6.39
		c-3.44-0.12-3.68,1.23-3.68,1.23c1.23-11.54-7.61-14.49-7.61-14.49c1.65,1.77,1.94,4.24,1.37,6.52c-0.27,1.08-0.7,2.24-1.28,3.19
		c-0.62,0.99-1.5,1.78-2.15,2.75c-1.39,2.1-1.33,4.77-0.9,7.16c0.03,0.17,0.34,1.65,0.51,1.75c-3.87-2.15-5.53-0.49-5.53-0.49
		c2.46,0.96,2.4,4.7,3.13,6.78c0.99,2.82,2.91,4.18,4.16,4.79c-0.63-0.27-1.49-0.67-2.5-1.24c-1.35-0.76-2.6-1.7-3.93-2.5
		c-1.42-0.86-2.95-1.7-4.65-1.74c-2.2-0.05-4.26,0.76-5.47,2.64c-0.74,1.15-1.17,3.43-2.64,3.67c2.09,0.38,1.29,5.22,8.23,5.16
		c4.42-0.04,7.49-2.33,9.7-3.44c2.21-1.11,4.79-1.11,4.79-1.11s2.58,0,4.79,1.11c2.21,1.11,5.28,3.4,9.7,3.44
		c6.94,0.06,6.14-4.78,8.23-5.16C61.24,46.48,60.82,44.2,60.07,43.05z M32.63,47.58c-1.84,0.49-4.3,1.6-6.51,1.23
		c-2.21-0.37-3.97-2.09-3.97-2.09s1.76-2.24,3.97-2.72c2.21-0.48,4.47,0.12,6.26,0.89c1.72,0.74,5.28,1.83,5.28,1.83
		S34.47,47.09,32.63,47.58z M53.88,48.81c-2.21,0.37-4.67-0.74-6.51-1.23c-1.84-0.49-5.03-0.86-5.03-0.86s3.56-1.1,5.28-1.83
		c1.79-0.77,4.05-1.37,6.26-0.89c2.21,0.48,3.97,2.72,3.97,2.72S56.09,48.44,53.88,48.81z"/>
	<polygon points="79.54,59.98 79.54,60 0.46,60 0.46,59.98 3.52,55.33 76.48,55.33 	"/>
</g>
</svg>
