<?xml version="1.0" encoding="utf-8"?>
<!-- Generator: Adobe Illustrator 23.0.3, SVG Export Plug-In . SVG Version: 6.00 Build 0)  -->
<svg version="1.1" id="Layer_1" xmlns="http://www.w3.org/2000/svg" xmlns:xlink="http://www.w3.org/1999/xlink" x="0px" y="0px"
	 viewBox="0 0 175 60" style="enable-background:new 0 0 175 60;" xml:space="preserve">
<style type="text/css">
	.st0{fill:#6CB8F8;}
	.st1{fill:#FAF06E;}
	.st2{fill:#37586F;}
	.st3{fill:#E8C31F;}
	.st4{fill:#803642;}
	.st5{fill:#E8C744;}
	.st6{fill:#231F20;}
	.st7{fill:#317C8E;}
	.st8{fill:#EDE70C;}
	.st9{fill:#D66928;}
	.st10{fill:#005E8E;}
</style>
<g>
	<g>
		<polygon class="st4" points="79.36,60 0.25,60 0.27,59.98 3.33,55.33 39.81,0 76.28,55.33 79.35,59.98 		"/>
	</g>
	<path class="st5" d="M59.88,43.05c-1.21-1.88-3.27-2.69-5.47-2.64c-1.7,0.04-3.37,0.68-4.65,1.74c-4.05,3.34-9.27,3.04-11.48,0.58
		c-1.83-2.03-1.37-6.07,1.31-7.16c1.14-0.47,2.9-0.47,3.71,0.6c0.35,0.47,0.52,1.05,0.56,1.64c0.05,0.67-0.08,1.39-0.51,1.91
		c-0.63,0.77-1.79,1.1-2.74,0.81c-1.04-0.31-1.35-1.09-1.35-1.09s0.14,1.93,1.12,2.91c0.5,0.5,1.1,0.88,1.76,1.1
		c1.39,0.47,2.98,0.32,4.31-0.27c1.6-0.72,2.79-2.14,3-3.91c0.25-2.18-0.83-4.28-1.77-6.17c-2.09-4.18,0.61-6.39,0.61-6.39
		c-3.44-0.12-3.68,1.23-3.68,1.23c1.23-11.54-7.61-14.49-7.61-14.49c1.65,1.77,1.94,4.24,1.37,6.52c-0.27,1.08-0.7,2.24-1.28,3.19
		c-0.62,0.99-1.5,1.78-2.15,2.75c-1.39,2.1-1.33,4.77-0.9,7.16c0.03,0.17,0.34,1.65,0.51,1.75C30.66,32.67,29,34.32,29,34.32
		c2.46,0.96,2.4,4.7,3.13,6.78c0.99,2.82,2.91,4.18,4.16,4.79c-0.63-0.27-1.49-0.67-2.5-1.24c-1.35-0.76-2.6-1.7-3.93-2.5
		c-1.42-0.86-2.95-1.7-4.65-1.74c-2.2-0.05-4.26,0.76-5.47,2.64c-0.74,1.15-1.17,3.43-2.64,3.67c2.09,0.38,1.29,5.22,8.23,5.16
		c4.42-0.04,7.49-2.33,9.7-3.44c2.21-1.11,4.79-1.11,4.79-1.11s2.58,0,4.79,1.11c2.21,1.11,5.28,3.4,9.7,3.44
		c6.94,0.06,6.14-4.78,8.23-5.16C61.05,46.48,60.62,44.2,59.88,43.05z M32.44,47.58c-1.84,0.49-4.3,1.6-6.51,1.23
		c-2.21-0.37-3.97-2.09-3.97-2.09s1.76-2.24,3.97-2.72c2.21-0.48,4.47,0.12,6.26,0.89c1.72,0.74,5.28,1.83,5.28,1.83
		S34.28,47.09,32.44,47.58z M53.68,48.81c-2.21,0.37-4.67-0.74-6.51-1.23c-1.84-0.49-5.03-0.86-5.03-0.86s3.56-1.1,5.28-1.83
		c1.79-0.77,4.05-1.37,6.26-0.89c2.21,0.48,3.97,2.72,3.97,2.72S55.89,48.44,53.68,48.81z"/>
	<polygon points="79.35,59.98 79.35,60 0.27,60 0.27,59.98 3.33,55.33 76.28,55.33 	"/>
	<g>
		<g>
			<path class="st4" d="M89.6,36.28h-1.96V26h-3.52v-1.68h8.99V26H89.6V36.28z"/>
			<path class="st4" d="M99.34,27.07c0.39,0,0.71,0.03,0.96,0.08l-0.19,1.79c-0.27-0.07-0.56-0.1-0.85-0.1
				c-0.77,0-1.39,0.25-1.87,0.75c-0.48,0.5-0.72,1.15-0.72,1.96v4.73h-1.92v-9.05h1.51l0.25,1.6h0.1c0.3-0.54,0.69-0.97,1.17-1.28
				C98.26,27.23,98.78,27.07,99.34,27.07z"/>
			<path class="st4" d="M105.93,36.45c-1.41,0-2.51-0.41-3.3-1.23c-0.79-0.82-1.19-1.95-1.19-3.39c0-1.48,0.37-2.64,1.1-3.49
				c0.74-0.85,1.75-1.27,3.04-1.27c1.19,0,2.14,0.36,2.83,1.09c0.69,0.73,1.04,1.72,1.04,2.99v1.04h-6.03
				c0.03,0.88,0.26,1.55,0.71,2.03c0.45,0.47,1.08,0.71,1.89,0.71c0.53,0,1.03-0.05,1.49-0.15c0.46-0.1,0.96-0.27,1.49-0.5v1.56
				c-0.47,0.22-0.94,0.38-1.42,0.47C107.09,36.4,106.54,36.45,105.93,36.45z M105.57,28.53c-0.61,0-1.1,0.19-1.47,0.58
				c-0.37,0.39-0.59,0.95-0.66,1.69h4.11c-0.01-0.75-0.19-1.31-0.54-1.7C106.66,28.72,106.18,28.53,105.57,28.53z"/>
			<path class="st4" d="M117.71,33.71c0,0.88-0.32,1.56-0.97,2.03c-0.64,0.47-1.57,0.71-2.77,0.71c-1.21,0-2.17-0.18-2.9-0.55v-1.66
				c1.06,0.49,2.05,0.74,2.97,0.74c1.18,0,1.78-0.36,1.78-1.07c0-0.23-0.07-0.42-0.2-0.57c-0.13-0.15-0.35-0.31-0.65-0.47
				c-0.3-0.16-0.72-0.35-1.25-0.56c-1.04-0.4-1.75-0.81-2.12-1.21c-0.37-0.4-0.55-0.93-0.55-1.57c0-0.77,0.31-1.38,0.94-1.8
				c0.62-0.43,1.47-0.64,2.55-0.64c1.06,0,2.07,0.22,3.02,0.65l-0.62,1.45c-0.98-0.4-1.8-0.61-2.46-0.61
				c-1.01,0-1.52,0.29-1.52,0.87c0,0.28,0.13,0.52,0.4,0.72c0.26,0.2,0.84,0.47,1.73,0.81c0.75,0.29,1.29,0.55,1.63,0.79
				c0.34,0.24,0.59,0.52,0.75,0.83C117.63,32.9,117.71,33.27,117.71,33.71z"/>
			<path class="st4" d="M127.75,36.28h-1.93v-5.56c0-0.7-0.14-1.22-0.42-1.56c-0.28-0.34-0.73-0.52-1.34-0.52
				c-0.81,0-1.41,0.24-1.78,0.72c-0.38,0.48-0.56,1.28-0.56,2.41v4.51h-1.92v-9.05h1.51l0.27,1.19h0.1c0.27-0.43,0.66-0.76,1.16-1
				c0.5-0.23,1.06-0.35,1.67-0.35c2.17,0,3.26,1.1,3.26,3.31V36.28z"/>
			<path class="st4" d="M136.08,36.28l-0.38-1.26h-0.07c-0.44,0.55-0.88,0.93-1.32,1.13c-0.44,0.2-1.01,0.3-1.7,0.3
				c-0.89,0-1.58-0.24-2.08-0.72c-0.5-0.48-0.75-1.16-0.75-2.04c0-0.93,0.35-1.64,1.04-2.11c0.69-0.47,1.75-0.73,3.17-0.78
				l1.56-0.05v-0.48c0-0.58-0.14-1.01-0.41-1.3c-0.27-0.29-0.69-0.43-1.26-0.43c-0.46,0-0.91,0.07-1.33,0.2
				c-0.43,0.14-0.83,0.3-1.23,0.48l-0.62-1.37c0.49-0.26,1.03-0.45,1.61-0.59c0.58-0.13,1.13-0.2,1.65-0.2
				c1.15,0,2.02,0.25,2.61,0.75c0.59,0.5,0.88,1.29,0.88,2.36v6.1H136.08z M133.22,34.97c0.7,0,1.26-0.19,1.68-0.59
				c0.42-0.39,0.63-0.94,0.63-1.64v-0.79l-1.16,0.05c-0.91,0.03-1.56,0.18-1.98,0.45c-0.41,0.27-0.62,0.68-0.62,1.24
				c0,0.4,0.12,0.72,0.36,0.94C132.38,34.86,132.74,34.97,133.22,34.97z"/>
			<path class="st4" d="M144.7,24.32h3.55c1.65,0,2.84,0.24,3.57,0.72c0.73,0.48,1.1,1.24,1.1,2.27c0,0.7-0.18,1.28-0.54,1.74
				c-0.36,0.46-0.88,0.76-1.55,0.88v0.08c0.84,0.16,1.46,0.47,1.85,0.94c0.4,0.47,0.59,1.1,0.59,1.89c0,1.07-0.38,1.92-1.13,2.52
				c-0.75,0.61-1.79,0.91-3.13,0.91h-4.32V24.32z M146.66,29.26h1.88c0.82,0,1.42-0.13,1.79-0.39c0.38-0.26,0.56-0.7,0.56-1.32
				c0-0.56-0.2-0.97-0.61-1.22c-0.41-0.25-1.05-0.38-1.94-0.38h-1.69V29.26z M146.66,30.85v3.79h2.08c0.82,0,1.44-0.16,1.85-0.47
				c0.42-0.31,0.63-0.81,0.63-1.49c0-0.62-0.21-1.08-0.64-1.38c-0.43-0.3-1.07-0.45-1.94-0.45H146.66z"/>
			<path class="st4" d="M161.22,36.28l-0.38-1.26h-0.07c-0.44,0.55-0.88,0.93-1.32,1.13c-0.44,0.2-1.01,0.3-1.7,0.3
				c-0.89,0-1.58-0.24-2.08-0.72c-0.5-0.48-0.75-1.16-0.75-2.04c0-0.93,0.35-1.64,1.04-2.11c0.69-0.47,1.75-0.73,3.17-0.78
				l1.56-0.05v-0.48c0-0.58-0.14-1.01-0.41-1.3c-0.27-0.29-0.69-0.43-1.26-0.43c-0.46,0-0.91,0.07-1.33,0.2
				c-0.43,0.14-0.83,0.3-1.23,0.48l-0.62-1.37c0.49-0.26,1.03-0.45,1.61-0.59c0.58-0.13,1.13-0.2,1.65-0.2
				c1.15,0,2.02,0.25,2.61,0.75c0.59,0.5,0.88,1.29,0.88,2.36v6.1H161.22z M158.36,34.97c0.7,0,1.26-0.19,1.68-0.59
				c0.42-0.39,0.63-0.94,0.63-1.64v-0.79l-1.16,0.05c-0.91,0.03-1.56,0.18-1.98,0.45c-0.41,0.27-0.62,0.68-0.62,1.24
				c0,0.4,0.12,0.72,0.36,0.94C157.52,34.86,157.88,34.97,158.36,34.97z"/>
			<path class="st4" d="M167.2,36.28h-1.92V23.55h1.92V36.28z"/>
			<path class="st4" d="M169.84,24.84c0-0.34,0.09-0.61,0.28-0.79c0.19-0.19,0.46-0.28,0.81-0.28c0.34,0,0.6,0.09,0.79,0.28
				c0.19,0.19,0.28,0.45,0.28,0.79c0,0.33-0.09,0.59-0.28,0.77s-0.45,0.28-0.79,0.28c-0.35,0-0.62-0.09-0.81-0.28
				S169.84,25.16,169.84,24.84z M171.87,36.28h-1.92v-9.05h1.92V36.28z"/>
		</g>
	</g>
</g>
</svg>
