<?xml version="1.0" encoding="utf-8"?>
<!-- Generator: Adobe Illustrator 23.0.3, SVG Export Plug-In . SVG Version: 6.00 Build 0)  -->
<svg version="1.1" id="Layer_1" xmlns="http://www.w3.org/2000/svg" xmlns:xlink="http://www.w3.org/1999/xlink" x="0px" y="0px"
	 viewBox="0 0 227 60" style="enable-background:new 0 0 227 60;" xml:space="preserve">
<style type="text/css">
	.st0{fill:#6CB8F8;}
	.st1{fill:#FAF06E;}
	.st2{fill:#37586F;}
	.st3{fill:#E8C31F;}
	.st4{fill:#970238;} <!-- Logo Background and Tresna Bali -->
	.st5{fill:#E8C744;} <!-- Fire and Accent -->
	.st6{fill:#231F20;}
	.st7{fill:#317C8E;}
	.st8{fill:#EDE70C;}
	.st9{fill:#D66928;}
	.st10{fill:#005E8E;} <!-- Cooking School Colour -->
</style>
<g>
	<g>
		<polygon class="st4" points="79.11,60 0,60 0.01,59.98 3.08,55.33 39.55,0 76.03,55.33 79.09,59.98 		"/>
	</g>
	<path class="st5" d="M59.63,43.05c-1.21-1.88-3.27-2.69-5.47-2.64c-1.7,0.04-3.37,0.68-4.65,1.74c-4.05,3.34-9.27,3.04-11.48,0.58
		c-1.83-2.03-1.37-6.07,1.31-7.16c1.14-0.47,2.9-0.47,3.71,0.6c0.35,0.47,0.52,1.05,0.56,1.64c0.05,0.67-0.08,1.39-0.51,1.91
		c-0.63,0.77-1.79,1.1-2.74,0.81c-1.04-0.31-1.35-1.09-1.35-1.09s0.14,1.93,1.12,2.91c0.5,0.5,1.1,0.88,1.76,1.1
		c1.39,0.47,2.98,0.32,4.31-0.27c1.6-0.72,2.79-2.14,3-3.91c0.25-2.18-0.83-4.28-1.77-6.17c-2.09-4.18,0.61-6.39,0.61-6.39
		c-3.44-0.12-3.68,1.23-3.68,1.23c1.23-11.54-7.61-14.49-7.61-14.49c1.65,1.77,1.94,4.24,1.37,6.52c-0.27,1.08-0.7,2.24-1.28,3.19
		c-0.62,0.99-1.5,1.78-2.15,2.75c-1.39,2.1-1.33,4.77-0.9,7.16c0.03,0.17,0.34,1.65,0.51,1.75c-3.87-2.15-5.53-0.49-5.53-0.49
		c2.46,0.96,2.4,4.7,3.13,6.78c0.99,2.82,2.91,4.18,4.16,4.79c-0.63-0.27-1.49-0.67-2.5-1.24c-1.35-0.76-2.6-1.7-3.93-2.5
		c-1.42-0.86-2.95-1.7-4.65-1.74c-2.2-0.05-4.26,0.76-5.47,2.64c-0.74,1.15-1.17,3.43-2.64,3.67c2.09,0.38,1.29,5.22,8.23,5.16
		c4.42-0.04,7.49-2.33,9.7-3.44c2.21-1.11,4.79-1.11,4.79-1.11s2.58,0,4.79,1.11c2.21,1.11,5.28,3.4,9.7,3.44
		c6.94,0.06,6.14-4.78,8.23-5.16C60.8,46.48,60.37,44.2,59.63,43.05z M32.19,47.58c-1.84,0.49-4.3,1.6-6.51,1.23
		c-2.21-0.37-3.97-2.09-3.97-2.09s1.76-2.24,3.97-2.72c2.21-0.48,4.47,0.12,6.26,0.89c1.72,0.74,5.28,1.83,5.28,1.83
		S34.03,47.09,32.19,47.58z M53.43,48.81c-2.21,0.37-4.67-0.74-6.51-1.23c-1.84-0.49-5.03-0.86-5.03-0.86s3.56-1.1,5.28-1.83
		c1.79-0.77,4.05-1.37,6.26-0.89c2.21,0.48,3.97,2.72,3.97,2.72S55.64,48.44,53.43,48.81z"/>
	<polygon points="79.09,59.98 79.09,60 0.01,60 0.01,59.98 3.08,55.33 76.03,55.33 	"/>
	<g>
		<g>
			<path class="st4" d="M97.52,30.34h-2.96V14.78h-5.32v-2.54h13.6v2.54h-5.32V30.34z"/>
			<path class="st4" d="M112.25,16.4c0.59,0,1.07,0.04,1.45,0.12l-0.28,2.71c-0.41-0.1-0.84-0.15-1.29-0.15
				c-1.16,0-2.11,0.38-2.83,1.14c-0.72,0.76-1.08,1.75-1.08,2.96v7.16h-2.91V16.65h2.28l0.38,2.41h0.15
				c0.45-0.82,1.05-1.46,1.78-1.94C110.62,16.64,111.4,16.4,112.25,16.4z"/>
			<path class="st4" d="M122.21,30.59c-2.13,0-3.79-0.62-4.99-1.86c-1.2-1.24-1.8-2.95-1.8-5.13c0-2.24,0.56-3.99,1.67-5.27
				c1.11-1.28,2.64-1.92,4.59-1.92c1.81,0,3.23,0.55,4.28,1.65c1.05,1.1,1.57,2.61,1.57,4.53v1.57h-9.12
				c0.04,1.33,0.4,2.35,1.08,3.06c0.68,0.71,1.63,1.07,2.86,1.07c0.81,0,1.56-0.08,2.26-0.23c0.7-0.15,1.45-0.41,2.25-0.76v2.36
				c-0.71,0.34-1.43,0.58-2.15,0.72C123.97,30.52,123.14,30.59,122.21,30.59z M121.68,18.6c-0.92,0-1.66,0.29-2.22,0.88
				c-0.56,0.59-0.89,1.44-1,2.56h6.21c-0.02-1.13-0.29-1.99-0.82-2.57C123.33,18.9,122.6,18.6,121.68,18.6z"/>
			<path class="st4" d="M140.04,26.44c0,1.34-0.49,2.36-1.46,3.08c-0.97,0.71-2.37,1.07-4.18,1.07c-1.82,0-3.29-0.28-4.39-0.83
				v-2.51c1.61,0.74,3.11,1.11,4.49,1.11c1.79,0,2.69-0.54,2.69-1.62c0-0.35-0.1-0.64-0.3-0.87c-0.2-0.23-0.52-0.47-0.98-0.72
				c-0.45-0.25-1.09-0.53-1.89-0.84c-1.58-0.61-2.64-1.22-3.2-1.83c-0.56-0.61-0.84-1.4-0.84-2.38c0-1.17,0.47-2.08,1.42-2.73
				c0.94-0.65,2.23-0.97,3.86-0.97c1.61,0,3.13,0.33,4.57,0.98l-0.94,2.19c-1.48-0.61-2.72-0.92-3.73-0.92
				c-1.54,0-2.3,0.44-2.3,1.31c0,0.43,0.2,0.79,0.6,1.09c0.4,0.3,1.27,0.71,2.62,1.23c1.13,0.44,1.95,0.84,2.46,1.2
				c0.51,0.36,0.89,0.78,1.14,1.26C139.91,25.21,140.04,25.78,140.04,26.44z"/>
			<path class="st4" d="M155.23,30.34h-2.92v-8.42c0-1.06-0.21-1.84-0.64-2.36c-0.43-0.52-1.1-0.78-2.02-0.78
				c-1.23,0-2.13,0.36-2.7,1.09c-0.57,0.73-0.85,1.94-0.85,3.65v6.82h-2.91V16.65h2.28l0.41,1.79h0.15c0.41-0.65,1-1.16,1.76-1.51
				c0.76-0.35,1.6-0.53,2.53-0.53c3.28,0,4.93,1.67,4.93,5.01V30.34z"/>
			<path class="st4" d="M167.84,30.34l-0.58-1.91h-0.1c-0.66,0.83-1.32,1.4-1.99,1.7c-0.67,0.3-1.53,0.45-2.57,0.45
				c-1.35,0-2.4-0.36-3.15-1.09c-0.76-0.73-1.13-1.75-1.13-3.08c0-1.41,0.52-2.48,1.57-3.19c1.05-0.72,2.64-1.11,4.79-1.18
				l2.36-0.07v-0.73c0-0.87-0.2-1.53-0.61-1.96c-0.41-0.43-1.04-0.65-1.9-0.65c-0.7,0-1.37,0.1-2.02,0.31
				c-0.64,0.21-1.26,0.45-1.86,0.73l-0.94-2.08c0.74-0.39,1.56-0.68,2.44-0.89c0.88-0.2,1.72-0.3,2.5-0.3
				c1.74,0,3.06,0.38,3.94,1.14c0.89,0.76,1.33,1.95,1.33,3.58v9.22H167.84z M163.51,28.36c1.06,0,1.9-0.29,2.54-0.89
				c0.64-0.59,0.96-1.42,0.96-2.48V23.8l-1.76,0.07c-1.37,0.05-2.37,0.28-2.99,0.69c-0.62,0.41-0.93,1.03-0.93,1.88
				c0,0.61,0.18,1.08,0.54,1.42C162.24,28.19,162.78,28.36,163.51,28.36z"/>
			<path class="st4" d="M180.88,12.24h5.37c2.49,0,4.29,0.36,5.4,1.09c1.11,0.73,1.66,1.87,1.66,3.44c0,1.06-0.27,1.94-0.82,2.64
				c-0.54,0.7-1.33,1.14-2.35,1.32v0.12c1.27,0.24,2.21,0.71,2.8,1.42c0.6,0.71,0.9,1.66,0.9,2.87c0,1.63-0.57,2.9-1.7,3.82
				c-1.13,0.92-2.71,1.38-4.74,1.38h-6.54V12.24z M183.83,19.72h2.85c1.24,0,2.14-0.2,2.71-0.59c0.57-0.39,0.85-1.06,0.85-2
				c0-0.85-0.31-1.46-0.92-1.84c-0.61-0.38-1.59-0.57-2.93-0.57h-2.56V19.72z M183.83,22.12v5.73h3.14c1.24,0,2.17-0.24,2.8-0.71
				c0.63-0.47,0.95-1.22,0.95-2.25c0-0.94-0.32-1.64-0.97-2.09c-0.64-0.45-1.62-0.68-2.93-0.68H183.83z"/>
			<path class="st4" d="M205.87,30.34l-0.58-1.91h-0.1c-0.66,0.83-1.32,1.4-1.99,1.7c-0.67,0.3-1.53,0.45-2.57,0.45
				c-1.35,0-2.4-0.36-3.15-1.09c-0.76-0.73-1.13-1.75-1.13-3.08c0-1.41,0.52-2.48,1.57-3.19c1.05-0.72,2.64-1.11,4.79-1.18
				l2.36-0.07v-0.73c0-0.87-0.2-1.53-0.61-1.96c-0.41-0.43-1.04-0.65-1.9-0.65c-0.7,0-1.37,0.1-2.02,0.31
				c-0.64,0.21-1.26,0.45-1.86,0.73l-0.94-2.08c0.74-0.39,1.56-0.68,2.44-0.89c0.88-0.2,1.72-0.3,2.5-0.3
				c1.74,0,3.06,0.38,3.94,1.14c0.89,0.76,1.33,1.95,1.33,3.58v9.22H205.87z M201.54,28.36c1.06,0,1.9-0.29,2.54-0.89
				c0.64-0.59,0.96-1.42,0.96-2.48V23.8l-1.76,0.07c-1.37,0.05-2.37,0.28-2.99,0.69c-0.62,0.41-0.93,1.03-0.93,1.88
				c0,0.61,0.18,1.08,0.54,1.42C200.27,28.19,200.81,28.36,201.54,28.36z"/>
			<path class="st4" d="M214.92,30.34h-2.91V11.08h2.91V30.34z"/>
			<path class="st4" d="M218.9,13.02c0-0.52,0.14-0.92,0.43-1.2c0.28-0.28,0.69-0.42,1.22-0.42c0.51,0,0.91,0.14,1.19,0.42
				c0.28,0.28,0.43,0.68,0.43,1.2c0,0.5-0.14,0.89-0.43,1.17c-0.28,0.28-0.68,0.43-1.19,0.43c-0.53,0-0.93-0.14-1.22-0.43
				C219.05,13.91,218.9,13.52,218.9,13.02z M221.99,30.34h-2.91V16.65h2.91V30.34z"/>
			<path d="M95.26,41.12c-0.99,0-1.78,0.33-2.36,0.99c-0.58,0.66-0.86,1.57-0.86,2.72c0,1.18,0.28,2.1,0.83,2.75
				c0.55,0.65,1.35,0.97,2.37,0.97c0.63,0,1.35-0.11,2.16-0.34v0.92c-0.63,0.24-1.4,0.35-2.32,0.35c-1.33,0-2.36-0.4-3.09-1.21
				c-0.72-0.81-1.09-1.96-1.09-3.45c0-0.93,0.17-1.75,0.52-2.45c0.35-0.7,0.85-1.24,1.51-1.62c0.66-0.38,1.43-0.57,2.32-0.57
				c0.95,0,1.78,0.17,2.49,0.52l-0.45,0.9C96.63,41.28,95.95,41.12,95.26,41.12z"/>
			<path d="M109.14,44.82c0,1.45-0.37,2.59-1.1,3.42c-0.73,0.83-1.75,1.24-3.05,1.24c-1.33,0-2.36-0.41-3.09-1.22
				c-0.72-0.81-1.09-1.97-1.09-3.45c0-1.47,0.36-2.62,1.09-3.43c0.73-0.81,1.76-1.22,3.09-1.22c1.3,0,2.31,0.41,3.05,1.24
				C108.77,42.23,109.14,43.36,109.14,44.82z M101.93,44.82c0,1.23,0.26,2.16,0.78,2.79c0.52,0.63,1.28,0.95,2.27,0.95
				c1,0,1.76-0.32,2.27-0.95c0.51-0.63,0.77-1.56,0.77-2.79c0-1.22-0.25-2.14-0.76-2.77c-0.51-0.63-1.26-0.94-2.26-0.94
				c-1,0-1.77,0.32-2.29,0.95C102.19,42.69,101.93,43.61,101.93,44.82z"/>
			<path d="M120.91,44.82c0,1.45-0.37,2.59-1.1,3.42c-0.73,0.83-1.75,1.24-3.05,1.24c-1.33,0-2.36-0.41-3.09-1.22
				c-0.72-0.81-1.09-1.97-1.09-3.45c0-1.47,0.36-2.62,1.09-3.43c0.73-0.81,1.76-1.22,3.09-1.22c1.3,0,2.31,0.41,3.05,1.24
				C120.55,42.23,120.91,43.36,120.91,44.82z M113.7,44.82c0,1.23,0.26,2.16,0.78,2.79c0.52,0.63,1.28,0.95,2.27,0.95
				c1,0,1.76-0.32,2.27-0.95c0.51-0.63,0.77-1.56,0.77-2.79c0-1.22-0.26-2.14-0.76-2.77c-0.51-0.63-1.26-0.94-2.26-0.94
				c-1,0-1.77,0.32-2.29,0.95C113.96,42.69,113.7,43.61,113.7,44.82z"/>
			<path d="M131.37,49.35h-1.24l-3.3-4.39l-0.95,0.84v3.55h-1.05V40.3h1.05v4.49l4.1-4.49h1.24l-3.64,3.93L131.37,49.35z"/>
			<path d="M134.51,49.35V40.3h1.05v9.05H134.51z"/>
			<path d="M147.02,49.35h-1.2l-4.95-7.59h-0.05c0.07,0.89,0.1,1.71,0.1,2.45v5.14h-0.97V40.3h1.19l4.93,7.56h0.05
				c-0.01-0.11-0.03-0.47-0.06-1.07c-0.03-0.6-0.04-1.04-0.03-1.3V40.3h0.98V49.35z"/>
			<path d="M155.39,44.61h3.08v4.4c-0.48,0.15-0.97,0.27-1.46,0.35c-0.5,0.08-1.07,0.12-1.72,0.12c-1.37,0-2.44-0.41-3.2-1.22
				c-0.76-0.81-1.15-1.96-1.15-3.43c0-0.94,0.19-1.76,0.57-2.47c0.38-0.71,0.92-1.25,1.63-1.62c0.71-0.37,1.54-0.56,2.49-0.56
				c0.97,0,1.87,0.18,2.7,0.53l-0.41,0.93c-0.82-0.35-1.6-0.52-2.36-0.52c-1.1,0-1.96,0.33-2.58,0.98
				c-0.62,0.66-0.93,1.57-0.93,2.73c0,1.22,0.3,2.15,0.89,2.78c0.6,0.63,1.47,0.95,2.63,0.95c0.63,0,1.24-0.07,1.84-0.22v-2.79
				h-2.02V44.61z"/>
			<path d="M172.84,46.95c0,0.8-0.29,1.42-0.87,1.86c-0.58,0.45-1.36,0.67-2.35,0.67c-1.07,0-1.9-0.14-2.48-0.41v-1.02
				c0.37,0.16,0.78,0.28,1.21,0.37c0.44,0.09,0.87,0.14,1.3,0.14c0.7,0,1.23-0.13,1.58-0.4c0.35-0.27,0.53-0.64,0.53-1.11
				c0-0.31-0.06-0.57-0.19-0.77c-0.13-0.2-0.34-0.38-0.63-0.55c-0.3-0.17-0.74-0.36-1.35-0.58c-0.84-0.3-1.44-0.66-1.8-1.07
				c-0.36-0.41-0.54-0.95-0.54-1.62c0-0.7,0.26-1.25,0.79-1.66c0.52-0.41,1.22-0.62,2.08-0.62c0.9,0,1.73,0.17,2.48,0.5l-0.33,0.92
				c-0.75-0.31-1.47-0.47-2.18-0.47c-0.56,0-0.99,0.12-1.31,0.36c-0.31,0.24-0.47,0.57-0.47,1c0,0.31,0.06,0.57,0.17,0.77
				c0.12,0.2,0.31,0.38,0.58,0.55c0.27,0.17,0.69,0.35,1.26,0.55c0.95,0.34,1.6,0.7,1.96,1.09
				C172.66,45.82,172.84,46.33,172.84,46.95z"/>
			<path d="M180.47,41.12c-0.99,0-1.78,0.33-2.36,0.99c-0.58,0.66-0.86,1.57-0.86,2.72c0,1.18,0.28,2.1,0.83,2.75
				c0.55,0.65,1.35,0.97,2.37,0.97c0.63,0,1.35-0.11,2.16-0.34v0.92c-0.63,0.24-1.4,0.35-2.32,0.35c-1.33,0-2.36-0.4-3.09-1.21
				c-0.72-0.81-1.09-1.96-1.09-3.45c0-0.93,0.17-1.75,0.52-2.45c0.35-0.7,0.85-1.24,1.51-1.62c0.66-0.38,1.43-0.57,2.32-0.57
				c0.95,0,1.78,0.17,2.49,0.52l-0.45,0.9C181.84,41.28,181.15,41.12,180.47,41.12z"/>
			<path d="M193.36,49.35h-1.05V45.1h-4.77v4.26h-1.05V40.3h1.05v3.85h4.77V40.3h1.05V49.35z"/>
			<path d="M205.6,44.82c0,1.45-0.37,2.59-1.1,3.42c-0.73,0.83-1.75,1.24-3.05,1.24c-1.33,0-2.36-0.41-3.09-1.22
				c-0.72-0.81-1.09-1.97-1.09-3.45c0-1.47,0.36-2.62,1.09-3.43c0.73-0.81,1.76-1.22,3.09-1.22c1.3,0,2.31,0.41,3.05,1.24
				C205.23,42.23,205.6,43.36,205.6,44.82z M198.39,44.82c0,1.23,0.26,2.16,0.78,2.79c0.52,0.63,1.28,0.95,2.27,0.95
				c1,0,1.76-0.32,2.27-0.95c0.51-0.63,0.77-1.56,0.77-2.79c0-1.22-0.25-2.14-0.76-2.77c-0.51-0.63-1.26-0.94-2.26-0.94
				c-1,0-1.77,0.32-2.29,0.95C198.65,42.69,198.39,43.61,198.39,44.82z"/>
			<path d="M217.37,44.82c0,1.45-0.37,2.59-1.1,3.42c-0.73,0.83-1.75,1.24-3.05,1.24c-1.33,0-2.36-0.41-3.09-1.22
				c-0.72-0.81-1.09-1.97-1.09-3.45c0-1.47,0.36-2.62,1.09-3.43c0.73-0.81,1.76-1.22,3.09-1.22c1.3,0,2.31,0.41,3.05,1.24
				C217.01,42.23,217.37,43.36,217.37,44.82z M210.16,44.82c0,1.23,0.26,2.16,0.78,2.79c0.52,0.63,1.28,0.95,2.27,0.95
				c1,0,1.76-0.32,2.27-0.95c0.51-0.63,0.77-1.56,0.77-2.79c0-1.22-0.25-2.14-0.76-2.77c-0.51-0.63-1.26-0.94-2.26-0.94
				c-1,0-1.77,0.32-2.29,0.95C210.42,42.69,210.16,43.61,210.16,44.82z"/>
			<path d="M221.29,49.35V40.3h1.05v8.1h3.99v0.95H221.29z"/>
		</g>
	</g>
</g>
</svg>
