<?xml version="1.0" standalone="no"?>
<!DOCTYPE svg PUBLIC "-//W3C//DTD SVG 20010904//EN"
 "http://www.w3.org/TR/2001/REC-SVG-20010904/DTD/svg10.dtd">
<svg version="1.0" xmlns="http://www.w3.org/2000/svg"
 width="417.000000pt" height="417.000000pt" viewBox="0 0 417.000000 417.000000"
 preserveAspectRatio="xMidYMid meet">
<metadata>
Created by potrace 1.11, written by Peter Selinger 2001-2013
</metadata>
<g transform="translate(0.000000,417.000000) scale(0.100000,-0.100000)"
fill="#000000" stroke="none">
<path d="M2049 3617 c-18 -29 -133 -203 -255 -387 -121 -184 -314 -476 -427
-648 -114 -172 -207 -317 -207 -322 0 -5 -3 -10 -8 -12 -4 -1 -59 -82 -122
-178 -63 -96 -118 -176 -122 -178 -5 -2 -8 -7 -8 -11 0 -5 -64 -104 -141 -222
-78 -118 -180 -272 -227 -344 -47 -71 -186 -282 -310 -468 -123 -186 -222
-340 -220 -343 3 -2 942 -3 2087 -2 l2082 3 -199 300 c-191 289 -334 505 -624
945 -74 113 -219 333 -323 490 -104 157 -239 362 -300 455 -148 226 -446 678
-555 842 l-88 131 -33 -51z"/>
</g>
</svg>
